#N canvas 238 107 1031 743 10;
#X text 37 58 ............................;
#X text 37 68 . ____ ._____ _ .......___ .;
#X text 37 78 .| __ )| ____| |....../ _ |.;
#X text 37 98 .| |_) | |___| |___ / ___ |.;
#X text 37 108 .|____/|_____|_____/_/..._|.io;
#X text 37 118 ............................;
#X text 37 88 .| __ || __|.| |...../ _| |.;
#X text 36 19 Send OSC messages to Bela for OLED Screen;
#X text 36 29 =========================================;
#X text 1927 15 ---;
#N canvas 870 225 268 303 init 0;
#X obj 16 20 array define \$0-array 128;
#X obj 17 140 loadbang;
#X msg 17 161 \; pd dsp 1;
#X obj 16 41 array define \$0-knob1 50;
#X obj 16 63 array define \$0-knob2 50;
#X obj 16 84 array define \$0-source_array 44100;
#X obj 16 107 array define \$0-grain_env 2048;
#X obj 17 226 f \$0;
#X obj 17 199 bng 16 250 50 0 empty empty empty 0 -8 0 10 #fcfcfc #000000 #000000;
#X floatatom 17 247 5 0 0 0 - - - 0;
#X obj 17 267 s main-doll_zero;
#X connect 1 0 2 0;
#X connect 1 0 7 0;
#X connect 7 0 9 0;
#X connect 8 0 7 0;
#X connect 9 0 10 0;
#X restore 1904 36 pd init;
#N canvas 237 262 450 300 compare 0;
#X obj 229 46 bng 16 250 50 0 empty empty empty 0 -8 0 10 #fcfcfc #000000 #000000;
#X obj 229 86 f;
#X obj 259 85 + 1;
#X floatatom 229 108 5 0 0 0 - - - 0;
#X msg 192 45 0;
#X obj 214 235 f;
#X floatatom 214 256 5 0 0 0 - - - 0;
#X floatatom 256 177 5 0 0 0 - - - 0;
#X obj 256 156 mod 2;
#X obj 256 197 sel 1;
#X obj 229 129 t f f;
#X connect 0 0 1 0;
#X connect 1 0 2 0;
#X connect 1 0 3 0;
#X connect 2 0 1 1;
#X connect 3 0 10 0;
#X connect 4 0 1 1;
#X connect 5 0 6 0;
#X connect 7 0 9 0;
#X connect 8 0 7 0;
#X connect 9 0 5 0;
#X connect 10 0 5 1;
#X connect 10 1 8 0;
#X restore 1887 61 pd compare;
#X obj 31 181 cnv 16 500 500 empty empty bela-io 20 12 0 32 #c6ffc7 #404040 0;
#X obj 234 648 print backward;
#X obj 131 498 loadbang;
#X msg 157 560 disconnect;
#X obj 345 535 list prepend send;
#X obj 345 556 list trim;
#X obj 159 615 netsend -u -b;
#X obj 345 340 bng 15 250 50 0 empty empty empty 17 7 0 10 #fcfcfc #000000 #000000;
#X obj 345 360 oscformat osc-test;
#X obj 381 499 oscformat waveform;
#X text 370 339 osc-test;
#X text 139 426 send OSC to Bela;
#X text 17 1482 ---;
#X obj 749 93 cnv 16 350 640 empty empty 2-simplest-synth 20 12 0 32 #feffc6 #404040 0;
#X obj 823 204 phasor~;
#X floatatom 823 173 5 0 0 0 - - - 0;
#X obj 823 282 lop~;
#X obj 847 238 hsl 136 16 0 5000 0 0 empty empty empty -2 -8 0 10 #fcfcfc #000000 #000000 0 1;
#X floatatom 844 259 5 0 0 0 - - - 0;
#X obj 825 685 *~;
#X obj 844 656 hsl 136 16 0 1 0 0 empty empty empty -2 -8 0 10 #fcfcfc #000000 #000000 0 1;
#X obj 889 535 vline~;
#X obj 825 571 *~;
#X obj 912 291 vsl 16 136 0 300 0 0 empty empty a 0 -10 0 10 #fcfcfc #000000 #000000 0 1;
#X obj 948 291 vsl 16 136 0 1000 0 0 empty empty d 0 -10 0 10 #fcfcfc #000000 #000000 0 1;
#X obj 983 291 vsl 16 136 0 1 0 0 empty empty s 0 -10 0 10 #fcfcfc #000000 #000000 0 1;
#X obj 1020 291 vsl 16 136 0 2000 0 0 empty empty r 0 -10 0 10 #fcfcfc #000000 #000000 0 1;
#X floatatom 1020 435 5 0 0 0 - - - 0;
#X floatatom 912 435 5 0 0 0 - - - 0;
#X floatatom 948 435 5 0 0 0 - - - 0;
#X floatatom 983 435 5 0 0 0 - - - 0;
#X msg 889 509 1 \$2 \, \$4 \$3 \$2;
#X obj 889 479 pack f f f f;
#X msg 1020 508 0 \$2;
#X obj 1020 481 pack f f;
#X obj 766 381 tgl 16 0 empty empty empty 0 -8 0 10 #fcfcfc #000000 #000000 0 1;
#X obj 766 402 sel 1 0;
#X obj 1006 141 loadbang;
#X msg 1019 194 35;
#X msg 1031 213 450;
#X msg 1043 232 0.2;
#X msg 1058 252 1400;
#X obj 841 613 loadbang;
#X msg 1006 174 290;
#X obj 17 1420 catch~ \$0-audio;
#X obj 825 706 throw~ \$0-audio;
#X msg 841 634 0.6;
#N canvas 345 434 450 307 count 0;
#X obj 137 95 inlet low;
#X obj 241 95 inlet high;
#X obj 137 116 f;
#X obj 241 116 f;
#X obj 167 116 - 1;
#X obj 270 116 + 1;
#X floatatom 241 137 5 0 0 0 - - - 0;
#X floatatom 137 137 5 0 0 0 - - - 0;
#X obj 241 183 outlet high;
#X obj 137 237 outlet low;
#X obj 137 157 > 0;
#X obj 137 187 sel 0;
#X msg 137 208 0;
#X connect 0 0 2 0;
#X connect 1 0 3 0;
#X connect 2 0 4 0;
#X connect 2 0 7 0;
#X connect 3 0 5 0;
#X connect 3 0 6 0;
#X connect 4 0 2 1;
#X connect 5 0 3 1;
#X connect 6 0 8 0;
#X connect 6 0 2 1;
#X connect 7 0 3 1;
#X connect 7 0 10 0;
#X connect 7 0 9 0;
#X connect 10 0 11 0;
#X connect 11 0 12 0;
#X connect 12 0 2 1;
#X restore 762 238 pd count;
#X obj 823 132 loadbang;
#X msg 823 153 175;
#N canvas 875 216 378 502 route-custom-input 0;
#X obj 46 46 inlet ci0;
#X obj 182 46 inlet ci1;
#X floatatom 182 104 5 0 0 0 - - - 0;
#X floatatom 216 123 5 0 0 0 - - - 0;
#X obj 182 83 unpack 0 0 0;
#X floatatom 251 141 5 0 0 0 - - - 0;
#X obj 178 179 spigot;
#X obj 178 208 sel 0 1;
#X obj 178 229 bng 16 250 50 0 empty empty empty 0 -8 0 10 #fcfcfc #000000 #000000;
#X obj 202 229 bng 16 250 50 0 empty empty empty 0 -8 0 10 #fcfcfc #000000 #000000;
#X obj 236 277 f;
#X obj 263 180 sel 0;
#X msg 263 201 0;
#X floatatom 46 105 5 0 0 0 - - - 0;
#X floatatom 80 124 5 0 0 0 - - - 0;
#X obj 46 84 unpack 0 0 0;
#X floatatom 115 142 5 0 0 0 - - - 0;
#X obj 42 180 spigot;
#X obj 42 209 sel 0 1;
#X obj 42 230 bng 16 250 50 0 empty empty empty 0 -8 0 10 #fcfcfc #000000 #000000;
#X obj 66 230 bng 16 250 50 0 empty empty empty 0 -8 0 10 #fcfcfc #000000 #000000;
#X obj 100 278 f;
#X obj 127 181 sel 0;
#X msg 127 202 0;
#X obj 42 379 outlet ci0-0;
#X obj 127 411 outlet ci0-1;
#X obj 178 379 outlet ci1-0;
#X obj 263 411 outlet ci1-1;
#X connect 0 0 15 0;
#X connect 1 0 4 0;
#X connect 3 0 6 0;
#X connect 4 0 2 0;
#X connect 4 1 3 0;
#X connect 4 2 5 0;
#X connect 5 0 6 1;
#X connect 5 0 10 1;
#X connect 5 0 11 0;
#X connect 6 0 7 0;
#X connect 7 0 8 0;
#X connect 7 1 9 0;
#X connect 8 0 26 0;
#X connect 9 0 10 0;
#X connect 10 0 27 0;
#X connect 11 0 12 0;
#X connect 12 0 27 0;
#X connect 14 0 17 0;
#X connect 15 0 13 0;
#X connect 15 1 14 0;
#X connect 15 2 16 0;
#X connect 16 0 17 1;
#X connect 16 0 21 1;
#X connect 16 0 22 0;
#X connect 17 0 18 0;
#X connect 18 0 19 0;
#X connect 18 1 20 0;
#X connect 19 0 24 0;
#X connect 20 0 21 0;
#X connect 21 0 25 0;
#X connect 22 0 23 0;
#X connect 23 0 25 0;
#X restore 622 329 pd route-custom-input;
#X obj 262 439 oscformat menubool;
#X obj 381 474 spigot;
#X obj 262 334 t f f;
#X msg 262 411 \$1;
#X obj 473 414 - 1;
#X obj 473 435 abs;
#X obj 53 437 pack 0 0 0 0;
#X obj 53 232 r \$0-b1;
#X obj 77 255 r \$0-b2;
#X obj 77 276 t b f;
#X obj 112 323 t b f;
#X obj 112 302 r \$0-b3;
#X obj 146 370 t b f;
#X obj 146 349 r \$0-b4;
#X obj 53 464 oscformat btns;
#X text 343 208 1 == menu 0 == waveform;
#X obj 241 310 r menubool;
#X obj 17 1451 bela/audio-out~ 0 1;
#X obj 136 232 receive-from-bela, f 58;
#X obj 460 472 loadbang;
#X obj 1887 85 loadbang;
#X symbolatom 1887 172 10 0 0 0 - - - 0;
#X obj 1887 192 print;
#X msg 1914 136 set pd!;
#X obj 1887 106 t b b;
#X msg 131 530 connect 127.0.0.1 7562;
#X obj 568 504 cnv 16 150 500 empty empty 1-rollz 20 12 0 32 #c6feff #404040 0;
#X obj 574 379 cnv 16 100 100 empty empty 0-sampler 20 12 0 32 #c7c6ff #404040 0;
#N canvas 394 149 660 712 sampler 0;
#N canvas 413 37 244 307 live-array 0;
#X obj 48 20 inlet;
#X obj 87 37 inlet;
#X obj 33 211 tabwrite~ \$0-array;
#X obj 87 112 tgl 16 0 empty empty empty 0 -8 0 10 #fcfcfc #000000 #000000 0 1;
#X obj 87 245 array get \$0-array;
#X obj 87 162 t b b;
#X obj 33 123 *~;
#X obj 51 87 hsl 136 16 0 5 0 0 empty empty empty -2 -8 0 10 #fcfcfc #000000 #000000 0 1;
#X obj 33 155 +~ 1;
#X obj 33 176 *~ 0.5;
#X obj 87 276 outlet;
#X obj 87 133 metro 150;
#X obj 33 59 bela/audio-in~ 0 1;
#X connect 0 0 7 0;
#X connect 1 0 3 0;
#X connect 3 0 11 0;
#X connect 4 0 10 0;
#X connect 5 0 4 0;
#X connect 5 1 2 0;
#X connect 6 0 8 0;
#X connect 7 0 6 1;
#X connect 8 0 9 0;
#X connect 9 0 2 0;
#X connect 11 0 5 0;
#X connect 12 0 6 0;
#X restore 448 398 pd live-array;
#X obj 523 375 tgl 16 0 empty empty empty 0 -8 0 10 #fcfcfc #000000 #000000 0 1;
#X obj 488 346 hsl 136 16 0 1 0 0 empty empty empty -2 -8 0 10 #fcfcfc #000000 #000000 0 1;
#X obj 114 71 vsl 16 136 0 1 0 0 empty empty empty 0 -9 0 10 #fcfcfc #000000 #000000 0 1;
#X floatatom 485 315 5 0 5 0 - - - 0;
#X floatatom 114 318 5 0 0 0 - - - 0;
#X floatatom 399 423 5 0 0 1 start - - 0;
#X floatatom 471 504 5 0 0 1 stop - - 0;
#X obj 114 338 sel 1 0;
#X obj 148 547 array get;
#X obj 123 546 bng 19 250 50 0 empty empty empty 0 -10 0 12 #fcfcfc #000000 #000000;
#X obj 148 495 t b s;
#X obj 114 400 t b b;
#X msg 150 422 0;
#X msg 114 421 1;
#X msg 252 424 0;
#X msg 223 424 1;
#X obj 399 443 * 128;
#X obj 471 524 * 128;
#X obj 399 464 expr floor($f1);
#X floatatom 399 485 5 0 0 0 - - - 0;
#X obj 471 547 expr floor($f1);
#X floatatom 471 568 5 0 0 0 - - - 0;
#X floatatom 328 326 5 0 0 1 ph - - 0;
#X obj 328 346 * 128;
#X obj 328 367 expr floor($f1);
#X floatatom 328 388 5 0 0 0 - - - 0;
#X obj 52 26 loadbang;
#N canvas 310 124 705 300 vals-array 0;
#X obj 30 36 inlet rec-buffer;
#X obj 150 36 inlet live-buffer;
#X obj 598 37 inlet endpos;
#X obj 493 37 inlet startpos;
#X obj 406 37 inlet phpos;
#X obj 30 237 outlet send;
#X obj 598 58 t b f;
#X obj 493 58 t b f;
#X obj 406 58 t b f;
#X text 29 17 0;
#X text 149 19 0;
#X text 404 21 n-2;
#X text 491 21 n-1;
#X text 596 21 n;
#X obj 30 147 pack 0 0 0 0 0 0 0 0 0 0 0 0 0 0 0 0 0 0 0 0 0 0 0 0 0 0 0 0 0 0 0 0 0 0 0 0 0 0 0 0 0 0 0 0 0 0 0 0 0 0 0 0 0 0 0 0 0 0 0 0 0 0 0 0 0 0 0 0 0 0 0 0 0 0 0 0 0 0 0 0 0 0 0 0 0 0 0 0 0 0 0 0 0 0 0 0 0 0 0 0 0 0 0 0 0 0 0 0 0 0 0 0 0 0 0 0 0 0 0 0 0 0 0 0 0 0 0 0 0 0 0 0, f 54;
#X obj 317 58 t b f;
#X text 315 21 n-3;
#X obj 317 37 inlet buffer;
#X connect 0 0 14 0;
#X connect 1 0 14 0;
#X connect 2 0 6 0;
#X connect 3 0 7 0;
#X connect 4 0 8 0;
#X connect 6 0 14 0;
#X connect 6 1 14 131;
#X connect 7 0 14 0;
#X connect 7 1 14 130;
#X connect 8 0 14 0;
#X connect 8 1 14 129;
#X connect 14 0 5 0;
#X connect 15 0 14 0;
#X connect 15 1 14 128;
#X connect 17 0 15 0;
#X restore 148 629 pd vals-array;
#X obj 148 680 outlet to-bela;
#X obj 168 148 inlet state;
#X obj 223 173 inlet buffer;
#X obj 277 199 inlet play;
#X obj 332 222 inlet startpos;
#X obj 387 245 inlet endpos;
#X obj 114 656 outlet~;
#X floatatom 178 586 5 0 0 0 - - - 10;
#X obj 204 493 spigot;
#X obj 237 467 tgl 16 0 empty empty empty 0 -8 0 10 #fcfcfc #000000 #000000 0 1;
#X obj 204 393 t b b b;
#X obj 204 459 bng 16 250 50 0 empty empty empty 0 -8 0 10 #fcfcfc #000000 #000000;
#X obj 114 283 toolkit-sampler, f 60;
#X msg 52 47 0.125;
#X connect 0 0 28 1;
#X connect 1 0 0 1;
#X connect 2 0 0 0;
#X connect 3 0 41 0;
#X connect 4 0 2 0;
#X connect 5 0 8 0;
#X connect 6 0 17 0;
#X connect 7 0 18 0;
#X connect 8 0 12 0;
#X connect 8 1 39 0;
#X connect 9 0 28 0;
#X connect 10 0 9 0;
#X connect 11 0 9 0;
#X connect 11 1 9 2;
#X connect 12 0 14 0;
#X connect 12 1 13 0;
#X connect 13 0 38 0;
#X connect 14 0 1 0;
#X connect 15 0 1 0;
#X connect 16 0 38 0;
#X connect 17 0 19 0;
#X connect 18 0 21 0;
#X connect 19 0 20 0;
#X connect 20 0 28 4;
#X connect 21 0 22 0;
#X connect 22 0 28 5;
#X connect 23 0 24 0;
#X connect 24 0 25 0;
#X connect 25 0 26 0;
#X connect 26 0 28 3;
#X connect 27 0 42 0;
#X connect 28 0 29 0;
#X connect 30 0 41 2;
#X connect 31 0 41 1;
#X connect 31 0 36 0;
#X connect 32 0 41 3;
#X connect 33 0 41 4;
#X connect 34 0 41 5;
#X connect 36 0 28 2;
#X connect 37 0 9 0;
#X connect 38 0 37 1;
#X connect 39 0 40 0;
#X connect 39 1 16 0;
#X connect 39 2 15 0;
#X connect 40 0 37 0;
#X connect 41 0 35 0;
#X connect 41 1 5 0;
#X connect 41 2 11 0;
#X connect 41 3 23 0;
#X connect 41 4 6 0;
#X connect 41 5 7 0;
#X connect 42 0 4 0;
#X connect 42 0 3 0;
#X restore 595 425 pd sampler;
#X obj 577 547 bela/audio-in~ 0 1;
#X obj 577 650 *~;
#X obj 617 582 sel 0 1;
#X msg 617 613 0;
#X msg 658 613 1;
#X obj 678 768 throw~ \$0-audio;
#X obj 595 455 throw~ \$0-audio;
#X obj 580 789 metro 50;
#X obj 580 810 snapshot~;
#X obj 580 733 loadbang;
#X obj 580 764 tgl 16 0 empty empty empty 0 -8 0 10 #fcfcfc #000000 #000000 0 1;
#X floatatom 580 831 5 0 0 0 - - - 0;
#X obj 580 903 sel 1;
#X obj 580 851 abs;
#X msg 580 924 1;
#X msg 613 951 0;
#X obj 613 930 delay 20;
#X obj 1124 333 cnv 16 625 1125 empty empty 3-granulator 20 12 0 32 #dfdfdf #404040 0;
#X obj 1244 1140 grainvoice;
#X obj 1560 423 loadbang;
#X msg 853 288 read;
#X obj 1143 487 soundfiler;
#X obj 1143 508 s \$0-filesize;
#N canvas 614 443 238 219 populate-grain-env 1;
#X obj 16 42 t b b;
#X obj 16 106 f;
#X obj 44 106 + 1;
#X msg 54 63 0;
#X obj 16 85 until;
#X obj 16 127 t f f;
#X obj 16 20 inlet;
#X msg 16 63 2048;
#X obj 16 148 expr ($f1-1024)/1024;
#X obj 16 168 expr 0.5+(cos($f1 * 3.141)/2);
#X obj 16 188 tabwrite \$0-grain_env;
#X connect 0 0 7 0;
#X connect 0 1 3 0;
#X connect 1 0 2 0;
#X connect 1 0 5 0;
#X connect 2 0 1 1;
#X connect 3 0 1 1;
#X connect 4 0 1 0;
#X connect 5 0 8 0;
#X connect 5 1 10 1;
#X connect 6 0 0 0;
#X connect 7 0 4 0;
#X connect 8 0 9 0;
#X connect 9 0 10 0;
#X restore 1144 423 pd populate-grain-env;
#X obj 1143 535 hsl 136 16 0 1 0 0 empty empty grainstart 40 8 0 10 #fcfcfc #000000 #000000 0 1;
#X floatatom 1157 556 5 0 0 0 - - - 0;
#X obj 1140 579 t f b;
#X obj 1167 616 f;
#X obj 1182 594 r \$0-filesize;
#X obj 1140 636 *;
#X obj 1299 535 hsl 136 16 10 2000 0 0 empty empty graindur 40 8 0 10 #fcfcfc #000000 #000000 0 1;
#X floatatom 1310 556 5 0 0 0 - - - 0;
#X text 1370 1010 grainvoice: 1) bang 2) graindur 3) grainpitch 4) grainstart;
#X obj 1453 536 hsl 136 16 0.5 2 0 0 empty empty grainpitch 40 8 0 10 #fcfcfc #000000 #000000 0 1;
#X floatatom 1464 557 5 0 0 0 - - - 0;
#X obj 1450 580 * 44100;
#X obj 1140 657 s \$0-grainstart;
#X obj 1301 1115 r \$0-grainstart;
#X obj 1296 578 s \$0-graindur;
#X obj 1263 1069 r \$0-graindur;
#X obj 1450 601 s \$0-grainpitch;
#X obj 1604 537 hsl 136 16 1 2 0 0 empty empty overlap 40 8 0 10 #fcfcfc #000000 #000000 0 1;
#X floatatom 1615 558 5 0 0 0 - - - 0;
#X obj 1601 580 s \$0-overlap;
#X obj 1282 1092 r \$0-grainpitch;
#X obj 1406 1141 grainvoice;
#X obj 1463 1116 r \$0-grainstart;
#X obj 1425 1070 r \$0-graindur;
#X obj 1444 1093 r \$0-grainpitch;
#X obj 1568 1141 grainvoice;
#X obj 1625 1116 r \$0-grainstart;
#X obj 1587 1070 r \$0-graindur;
#X obj 1606 1093 r \$0-grainpitch;
#X obj 1728 1139 grainvoice;
#X obj 1785 1114 r \$0-grainstart;
#X obj 1747 1068 r \$0-graindur;
#X obj 1766 1091 r \$0-grainpitch;
#X obj 1296 667 / 2;
#X obj 1317 690 t b f;
#X obj 1296 719 /;
#X obj 1245 748 metro 100;
#X obj 1245 724 tgl 16 0 empty empty empty 0 -8 0 10 #fcfcfc #000000 #000000 0 1;
#X obj 1244 785 f;
#X obj 1271 785 + 1;
#X floatatom 1244 806 5 0 0 0 - - - 0;
#X obj 1244 826 mod 4;
#X floatatom 1244 847 5 0 0 0 - - - 0;
#X obj 1244 867 t f b b;
#X obj 1301 919 random 200;
#X obj 1301 940 / 10000;
#X obj 1301 961 + 1;
#X obj 1272 892 random 10000;
#X obj 1244 990 pack f f f;
#X obj 1244 1011 route 0 1 2 3;
#X msg 1244 1044 \$1 \$2 1;
#X msg 1406 1046 \$1 \$2 1;
#X msg 1568 1048 \$1 \$2 1;
#X msg 1728 1047 \$1 \$2 1;
#X obj 1244 1376 rev3~ 95 90;
#X obj 1303 1425 throw~ \$0-audio;
#X obj 1144 375 r main-doll_zero;
#X msg 1588 486 1;
#X msg 1601 508 1;
#X obj 1221 786 bng 16 250 50 0 empty empty empty 0 -8 0 10 #fcfcfc #000000 #000000;
#X obj 1303 1319 *~;
#X obj 1318 1172 vsl 16 136 0 1 0 0 empty empty empty 0 -9 0 10 #fcfcfc #000000 #000000 0 1;
#X obj 693 592 vsl 16 136 0 1 0 0 empty empty empty 0 -9 0 10 #fcfcfc #000000 #000000 0 1;
#X obj 678 742 *~;
#X obj 488 883 print thresh;
#X text 767 884 0.125 \, 0.01 \, 0.002;
#X obj 580 882 expr if ($f1 >= 0.002 \, 1 \, 0);
#X msg 1560 444 0.4;
#X msg 1574 465 150;
#X obj 1401 327 hradio 16 1 0 3 empty empty empty 0 -8 0 10 #fcfcfc #000000 #000000 0;
#X floatatom 1401 348 5 0 0 0 - - - 0;
#X obj 1372 492 pack f s;
#X obj 1401 368 sel 0 1 2;
#X obj 1372 468 f;
#X msg 1143 466 read -resize \$2 \$1-source_array;
#X obj 1144 396 t b f b;
#X msg 1401 298 0;
#X floatatom 1358 298 5 0 0 0 - - - 0;
#X obj 1418 444 t b a;
#X msg 1401 397 symbol kalimba-c2.wav;
#X msg 1418 421 symbol birdsong.wav;
#X connect 14 0 88 0;
#X connect 15 0 18 0;
#X connect 16 0 17 0;
#X connect 17 0 18 0;
#X connect 18 1 13 0;
#X connect 19 0 20 0;
#X connect 20 0 16 0;
#X connect 21 0 16 0;
#X connect 26 0 28 0;
#X connect 27 0 26 0;
#X connect 28 0 34 0;
#X connect 29 0 30 0;
#X connect 30 0 28 1;
#X connect 31 0 57 0;
#X connect 32 0 31 1;
#X connect 33 0 34 1;
#X connect 34 0 31 0;
#X connect 35 0 40 0;
#X connect 36 0 41 0;
#X connect 37 0 42 0;
#X connect 38 0 39 0;
#X connect 39 0 46 1;
#X connect 40 0 44 1;
#X connect 41 0 44 2;
#X connect 42 0 44 3;
#X connect 43 0 33 0;
#X connect 44 0 43 0;
#X connect 45 0 33 0;
#X connect 46 0 45 0;
#X connect 47 0 48 0;
#X connect 48 0 44 0;
#X connect 48 1 46 0;
#X connect 49 0 50 0;
#X connect 49 0 51 0;
#X connect 49 0 52 0;
#X connect 49 0 53 0;
#X connect 49 0 55 0;
#X connect 50 0 35 0;
#X connect 51 0 36 0;
#X connect 52 0 37 0;
#X connect 53 0 38 0;
#X connect 54 0 58 0;
#X connect 55 0 29 0;
#X connect 56 0 80 0;
#X connect 56 0 80 1;
#X connect 58 0 32 0;
#X connect 59 0 29 0;
#X connect 59 1 29 0;
#X connect 60 0 61 0;
#X connect 61 0 27 0;
#X connect 62 0 91 2;
#X connect 62 1 47 0;
#X connect 62 2 91 2;
#X connect 62 3 47 0;
#X connect 63 0 16 0;
#X connect 64 0 21 0;
#X connect 65 0 66 0;
#X connect 65 1 67 0;
#X connect 66 0 63 0;
#X connect 67 0 68 0;
#X connect 68 0 64 1;
#X connect 69 0 77 0;
#X connect 70 0 69 0;
#X connect 71 0 72 0;
#X connect 72 0 69 0;
#X connect 72 1 69 1;
#X connect 73 0 69 0;
#X connect 73 1 69 2;
#X connect 74 0 73 0;
#X connect 75 0 69 0;
#X connect 75 1 69 3;
#X connect 76 0 75 0;
#X connect 77 0 16 0;
#X connect 79 0 65 0;
#X connect 81 0 94 0;
#X connect 81 1 91 1;
#X connect 81 1 193 0;
#X connect 81 2 91 2;
#X connect 81 3 65 0;
#X connect 81 4 91 3;
#X connect 81 4 178 0;
#X connect 81 5 91 4;
#X connect 81 5 177 0;
#X connect 81 6 62 0;
#X connect 81 7 62 1;
#X connect 82 0 21 0;
#X connect 83 0 87 0;
#X connect 84 0 85 0;
#X connect 86 0 84 0;
#X connect 87 0 84 0;
#X connect 87 1 86 0;
#X connect 88 0 18 0;
#X connect 91 0 98 0;
#X connect 91 1 64 0;
#X connect 92 0 93 0;
#X connect 93 0 100 0;
#X connect 93 0 179 0;
#X connect 94 0 95 0;
#X connect 94 1 96 0;
#X connect 95 0 93 1;
#X connect 96 0 93 1;
#X connect 99 0 100 0;
#X connect 100 0 103 0;
#X connect 101 0 102 0;
#X connect 102 0 99 0;
#X connect 103 0 105 0;
#X connect 104 0 106 0;
#X connect 104 0 108 0;
#X connect 104 0 154 0;
#X connect 105 0 182 0;
#X connect 108 0 107 0;
#X connect 110 0 170 0;
#X connect 110 0 176 0;
#X connect 111 0 183 0;
#X connect 111 0 184 0;
#X connect 111 0 173 0;
#X connect 111 0 174 0;
#X connect 113 0 114 0;
#X connect 116 0 117 0;
#X connect 116 0 118 0;
#X connect 118 0 121 0;
#X connect 118 1 119 0;
#X connect 119 0 121 1;
#X connect 120 0 119 1;
#X connect 121 0 128 0;
#X connect 122 0 123 0;
#X connect 122 0 130 0;
#X connect 122 0 149 0;
#X connect 125 0 126 0;
#X connect 125 0 127 0;
#X connect 127 0 132 0;
#X connect 129 0 110 3;
#X connect 131 0 110 1;
#X connect 133 0 134 0;
#X connect 133 0 135 0;
#X connect 133 0 150 0;
#X connect 136 0 110 2;
#X connect 137 0 170 0;
#X connect 137 0 176 0;
#X connect 138 0 137 3;
#X connect 139 0 137 1;
#X connect 140 0 137 2;
#X connect 141 0 170 0;
#X connect 141 0 176 0;
#X connect 142 0 141 3;
#X connect 143 0 141 1;
#X connect 144 0 141 2;
#X connect 145 0 170 0;
#X connect 145 0 176 0;
#X connect 146 0 145 3;
#X connect 147 0 145 1;
#X connect 148 0 145 2;
#X connect 149 0 151 0;
#X connect 150 0 151 0;
#X connect 150 1 151 1;
#X connect 151 0 152 1;
#X connect 152 0 154 0;
#X connect 153 0 152 0;
#X connect 154 0 155 0;
#X connect 154 0 156 0;
#X connect 155 0 154 1;
#X connect 156 0 157 0;
#X connect 157 0 158 0;
#X connect 158 0 159 0;
#X connect 159 0 164 0;
#X connect 159 1 163 0;
#X connect 159 2 160 0;
#X connect 160 0 161 0;
#X connect 161 0 162 0;
#X connect 162 0 164 2;
#X connect 163 0 164 1;
#X connect 164 0 165 0;
#X connect 165 0 166 0;
#X connect 165 1 167 0;
#X connect 165 2 168 0;
#X connect 165 3 169 0;
#X connect 166 0 110 0;
#X connect 167 0 137 0;
#X connect 168 0 141 0;
#X connect 169 0 145 0;
#X connect 170 0 171 0;
#X connect 170 1 171 0;
#X connect 172 0 191 0;
#X connect 173 0 125 0;
#X connect 174 0 133 0;
#X connect 175 0 154 0;
#X connect 176 0 171 0;
#X connect 177 0 176 1;
#X connect 178 0 179 1;
#X connect 179 0 97 0;
#X connect 182 0 104 0;
#X connect 183 0 116 0;
#X connect 184 0 122 0;
#X connect 185 0 186 0;
#X connect 186 0 188 0;
#X connect 187 0 190 0;
#X connect 188 0 195 0;
#X connect 188 1 196 0;
#X connect 189 0 187 0;
#X connect 190 0 113 0;
#X connect 191 0 115 0;
#X connect 191 1 189 0;
#X connect 191 2 192 0;
#X connect 192 0 185 0;
#X connect 193 0 185 0;
#X connect 194 0 189 0;
#X connect 194 1 187 1;
#X connect 195 0 194 0;
#X connect 196 0 194 0;
