#N canvas 346 60 541 800 12;
#X obj 110 41 inlet;
#X obj 110 65 t b a;
#X obj 142 93 unpack f f f;
#X obj 379 16 r main-doll_zero;
#X obj 110 235 f;
#X obj 128 208 inlet graindur;
#X obj 110 279 *;
#X obj 110 303 t f f;
#X msg 172 336 0 \, 1 \$1 0;
#X obj 172 419 *~;
#X obj 172 360 vline~;
#X obj 108 448 / 1000;
#X text 140 279 moddur;
#X text 207 452 modpitch;
#X obj 172 451 *~ 1;
#X obj 108 472 sig~;
#X obj 154 510 *~;
#X obj 20 535 *~ 2048;
#X text -13 770 ---;
#X msg 34 574 set \$1-grain_env;
#X text 221 119 moddur;
#X text 179 142 modpitch;
#X text 140 169 modstart;
#X obj 196 561 +~;
#X text 226 593 modstart;
#X obj 214 534 inlet grainstart;
#X obj 196 592 +~;
#X obj 196 657 tabread4~;
#X msg 210 628 set \$1-source_array;
#X obj 20 604 tabread4~;
#X obj 178 696 *~;
#X obj 178 720 outlet~;
#X obj 190 391 inlet grainpitch;
#X text 38 450 second %;
#X connect 0 0 1 0;
#X connect 1 0 4 0;
#X connect 1 1 2 0;
#X connect 2 0 26 1;
#X connect 2 1 14 1;
#X connect 2 2 6 1;
#X connect 3 0 19 0;
#X connect 3 0 28 0;
#X connect 4 0 6 0;
#X connect 5 0 4 1;
#X connect 6 0 7 0;
#X connect 7 0 11 0;
#X connect 7 1 8 0;
#X connect 8 0 10 0;
#X connect 9 0 14 0;
#X connect 10 0 9 0;
#X connect 10 0 17 0;
#X connect 11 0 15 0;
#X connect 14 0 16 1;
#X connect 15 0 16 0;
#X connect 16 0 23 0;
#X connect 17 0 29 0;
#X connect 19 0 29 0;
#X connect 23 0 26 0;
#X connect 25 0 23 1;
#X connect 26 0 27 0;
#X connect 27 0 30 1;
#X connect 28 0 27 0;
#X connect 29 0 30 0;
#X connect 30 0 31 0;
#X connect 32 0 9 1;
