#N canvas 63 100 353 232 12;
#X obj 136 70 tgl 16 0 empty empty empty 0 -8 0 10 #fcfcfc #000000 #000000 0 1;
#X obj 136 41 loadbang;
#X obj 136 91 metro 2000;
#X obj 136 178 print test;
#X obj 18 97 loadbang;
#X msg 18 118 \; pd dsp 1;
#X connect 0 0 2 0;
#X connect 1 0 0 0;
#X connect 2 0 3 0;
#X connect 4 0 5 0;
