#N canvas 114 89 1326 730 12;
#X obj 98 344 hradio 16 1 0 3 empty empty empty 0 -8 0 10 #fcfcfc #000000 #000000 0;
#X floatatom 98 365 5 0 0 0 - - \$0-buffer 16;
#X obj 157 235 bng 16 250 50 0 empty empty play 20 10 0 10 #fcfcfc #000000 #000000;
#X obj 40 99 oscparse;
#X obj 40 120 list trim;
#X msg 40 50 listen 7563;
#X obj 40 70 netreceive -u -b;
#X obj 40 27 loadbang;
#X floatatom 40 205 5 0 0 0 - - - 0;
#X floatatom 98 206 5 0 0 0 - - - 0;
#X obj 98 273 f;
#X obj 129 273 + 1;
#X obj 98 250 bng 16 250 50 0 empty empty empty 0 -8 0 10 #fcfcfc #000000 #000000;
#X floatatom 98 315 5 0 0 0 - - - 0;
#X obj 98 294 mod 3;
#X floatatom 157 206 5 0 0 0 - - - 0;
#X floatatom 347 204 7 0 0 0 - - - 0;
#X floatatom 451 204 8 0 0 0 - - - 0;
#X obj 328 76 loadbang;
#X msg 328 98 0;
#N canvas 192 131 450 388 knob1hist 0;
#X obj 227 150 bng 16 250 50 0 empty empty empty 0 -8 0 10 #fcfcfc #000000 #000000;
#X obj 227 172 f;
#X obj 260 172 + 1;
#X floatatom 227 194 5 0 0 0 - - - 0;
#X floatatom 227 237 5 0 0 0 - - - 0;
#X floatatom 171 314 8 0 0 0 - - - 0;
#X obj 170 125 t b f b;
#X obj 170 100 inlet val;
#X obj 171 334 outlet minval;
#X obj 189 263 array set \$0-knob1;
#X obj 171 292 array min \$0-knob1;
#X obj 36 27 bng 16 250 50 0 empty empty empty 0 -8 0 10 #fcfcfc #000000 #000000;
#X listbox 36 69 54 0 0 0 - - - 0;
#X obj 36 48 array get \$0-knob2;
#X obj 227 215 mod 50;
#X connect 0 0 1 0;
#X connect 1 0 2 0;
#X connect 1 0 3 0;
#X connect 2 0 1 1;
#X connect 3 0 14 0;
#X connect 4 0 9 1;
#X connect 5 0 8 0;
#X connect 6 0 10 0;
#X connect 6 1 9 0;
#X connect 6 2 0 0;
#X connect 7 0 6 0;
#X connect 10 0 5 0;
#X connect 11 0 13 0;
#X connect 13 0 12 0;
#X connect 14 0 4 0;
#X restore 1161 30 pd knob1hist;
#X obj 43 674 outlet state;
#X obj 98 704 outlet buffer;
#X obj 153 732 outlet play;
#X obj 331 790 outlet startpos;
#X obj 446 764 outlet endpos;
#X obj 886 422 outlet squeeze;
#X obj 950 449 outlet low;
#X obj 1014 476 outlet high;
#X obj 451 233 moses 1;
#X floatatom 451 254 8 0 0 0 - - - 0;
#X obj 98 177 sel 1;
#X obj 157 178 sel 1;
#X obj 588 368 outlet ci0;
#X obj 647 405 outlet ci1;
#X obj 611 430 print ci0;
#X obj 674 466 print ci1;
#X obj 218 763 outlet menu;
#X obj 220 668 s \$0-b1;
#X obj 273 668 s \$0-b2;
#X obj 325 668 s \$0-b3;
#X obj 709 213 s \$0-b4;
#X obj 220 632 spigot;
#X obj 253 604 tgl 16 0 empty empty empty 0 -8 0 10 #fcfcfc #000000 #000000 0 1;
#X obj 113 469 sel 1 0;
#X obj 43 631 spigot;
#X obj 76 603 tgl 16 0 empty empty empty 0 -8 0 10 #fcfcfc #000000 #000000 0 1;
#X obj 113 490 t b b;
#X msg 140 515 0;
#X msg 113 537 1;
#X obj 181 492 t b b;
#X msg 208 517 1;
#X msg 181 539 0;
#X obj 98 631 spigot;
#X obj 131 603 tgl 16 0 empty empty empty 0 -8 0 10 #fcfcfc #000000 #000000 0 1;
#X obj 153 631 spigot;
#X obj 186 603 tgl 16 0 empty empty empty 0 -8 0 10 #fcfcfc #000000 #000000 0 1;
#X obj 273 633 spigot;
#X obj 306 605 tgl 16 0 empty empty empty 0 -8 0 10 #fcfcfc #000000 #000000 0 1;
#X obj 325 633 spigot;
#X obj 358 605 tgl 16 0 empty empty empty 0 -8 0 10 #fcfcfc #000000 #000000 0 1;
#X msg 273 549 1;
#X msg 303 549 0;
#X msg 249 496 1;
#X msg 279 496 0;
#X obj 366 539 bng 16 250 50 0 empty empty empty 0 -8 0 10 #fcfcfc #000000 #000000;
#X obj 425 641 s menubool;
#X msg 425 583 1;
#X msg 455 583 0;
#X floatatom 216 179 5 0 0 0 - - - 0;
#X obj 216 264 f;
#X obj 244 264 + 1;
#X floatatom 216 291 5 0 0 0 - - - 0;
#X obj 216 228 bng 16 250 50 0 empty empty empty 0 -8 0 10 #fcfcfc #000000 #000000;
#X obj 216 311 mod 2;
#X floatatom 216 332 5 0 0 0 - - - 0;
#X obj 216 199 sel 1;
#X floatatom 554 200 5 0 0 0 - - - 0;
#X obj 554 220 s \$0-e1;
#X obj 965 103 oscparse;
#X obj 965 124 list trim;
#X obj 965 74 netreceive -u -b;
#X obj 965 31 loadbang;
#X msg 965 54 listen 7564;
#X obj 965 145 route menuitem;
#X floatatom 965 166 5 0 0 0 - - - 0;
#X text 1030 30 menu;
#X text 106 27 sampler + custom input;
#X obj 773 279 r pb0;
#X floatatom 773 303 5 0 0 0 - - - 0;
#X floatatom 882 302 5 0 0 0 - - - 0;
#X obj 882 278 r pb2;
#X floatatom 827 302 5 0 0 0 - - - 0;
#X obj 827 278 r pb1;
#X floatatom 936 302 5 0 0 0 - - - 0;
#X obj 936 278 r pb3;
#X text 515 75 knob1 knob2 e1 ci0 ci1 ci2 ci3 ci4 ci5;
#X obj 789 565 snapshot~;
#X msg 755 472 1;
#X obj 755 524 metro 50;
#X obj 843 652 snapshot~;
#X floatatom 843 701 5 0 0 0 - - - 0;
#X floatatom 789 647 5 0 0 0 - - - 0;
#X obj 789 617 / 0.806;
#X obj 843 676 / 0.806;
#X obj 40 146 route pb0 pb1 pb2 pb3, f 128;
#X obj 789 484 bela/analog-in~ 0 1;
#X obj 354 233 print k1;
#X obj 470 284 print k2;
#X connect 0 0 1 0;
#X connect 0 0 53 0;
#X connect 2 0 55 0;
#X connect 3 0 4 0;
#X connect 4 0 105 0;
#X connect 5 0 6 0;
#X connect 6 0 3 0;
#X connect 7 0 5 0;
#X connect 8 0 45 0;
#X connect 8 0 42 0;
#X connect 9 0 12 0;
#X connect 10 0 11 0;
#X connect 10 0 14 0;
#X connect 11 0 10 1;
#X connect 12 0 10 0;
#X connect 13 0 0 0;
#X connect 14 0 13 0;
#X connect 15 0 2 0;
#X connect 16 0 24 0;
#X connect 17 0 29 0;
#X connect 18 0 19 0;
#X connect 18 0 98 0;
#X connect 19 0 8 0;
#X connect 19 0 9 0;
#X connect 19 0 16 0;
#X connect 19 0 17 0;
#X connect 19 0 70 0;
#X connect 29 0 30 0;
#X connect 30 0 25 0;
#X connect 31 0 9 0;
#X connect 32 0 15 0;
#X connect 42 0 38 0;
#X connect 43 0 42 1;
#X connect 44 0 47 0;
#X connect 44 1 50 0;
#X connect 45 0 21 0;
#X connect 46 0 45 1;
#X connect 47 0 49 0;
#X connect 47 1 48 0;
#X connect 48 0 46 0;
#X connect 48 0 54 0;
#X connect 48 0 56 0;
#X connect 49 0 43 0;
#X connect 49 0 58 0;
#X connect 49 0 60 0;
#X connect 50 0 52 0;
#X connect 50 1 51 0;
#X connect 51 0 46 0;
#X connect 51 0 54 0;
#X connect 51 0 56 0;
#X connect 52 0 43 0;
#X connect 52 0 58 0;
#X connect 52 0 60 0;
#X connect 53 0 22 0;
#X connect 54 0 53 1;
#X connect 55 0 23 0;
#X connect 56 0 55 1;
#X connect 57 0 39 0;
#X connect 58 0 57 1;
#X connect 59 0 40 0;
#X connect 60 0 59 1;
#X connect 61 0 57 0;
#X connect 62 0 57 0;
#X connect 63 0 42 0;
#X connect 64 0 42 0;
#X connect 65 0 59 0;
#X connect 67 0 66 0;
#X connect 68 0 66 0;
#X connect 69 0 76 0;
#X connect 70 0 71 0;
#X connect 70 0 72 0;
#X connect 71 0 70 1;
#X connect 72 0 74 0;
#X connect 73 0 70 0;
#X connect 74 0 75 0;
#X connect 75 0 44 0;
#X connect 75 0 37 0;
#X connect 76 0 73 0;
#X connect 77 0 78 0;
#X connect 79 0 80 0;
#X connect 80 0 84 0;
#X connect 81 0 79 0;
#X connect 82 0 83 0;
#X connect 83 0 81 0;
#X connect 84 0 85 0;
#X connect 88 0 89 0;
#X connect 88 0 8 0;
#X connect 90 0 59 0;
#X connect 91 0 90 0;
#X connect 91 0 32 0;
#X connect 92 0 57 0;
#X connect 93 0 92 0;
#X connect 93 0 31 0;
#X connect 95 0 94 0;
#X connect 95 0 69 0;
#X connect 95 0 41 0;
#X connect 97 0 103 0;
#X connect 98 0 99 0;
#X connect 99 0 97 0;
#X connect 99 0 100 0;
#X connect 100 0 104 0;
#X connect 101 0 17 0;
#X connect 102 0 16 0;
#X connect 103 0 102 0;
#X connect 104 0 101 0;
#X connect 105 0 8 0;
#X connect 105 1 31 0;
#X connect 105 1 57 0;
#X connect 105 2 32 0;
#X connect 105 2 59 0;
#X connect 105 3 69 0;
#X connect 105 3 41 0;
#X connect 106 0 97 0;
#X connect 106 1 100 0;
