#N canvas 599 402 725 375 12;
#X obj 39 52 inlet~;
#X obj 94 52 inlet gain;
#X obj 94 75 sig~;
#X obj 94 103 lop~ 2;
#X obj 39 132 *~;
#X obj 130 280 tabplay~;
#X obj 254 52 inlet rec;
#X obj 39 338 outlet~;
#X obj 39 252 tabwrite~;
#X msg 57 225 set \$1;
#N canvas 805 115 491 608 final-resample 0;
#X obj 174 57 bng 16 250 50 0 empty empty empty 0 -8 0 10 #fcfcfc #000000 #000000;
#X floatatom 174 99 9 0 0 0 - - - 0;
#X obj 174 177 / 128;
#X floatatom 174 198 9 0 0 0 - - - 0;
#X obj 93 305 f;
#X obj 169 304 f;
#X obj 202 304 +;
#X floatatom 169 325 9 0 0 0 - - - 0;
#X obj 174 218 t b b f;
#X msg 228 241 0;
#X msg 174 242 1;
#X msg 134 244 0;
#X obj 124 306 + 1;
#X floatatom 93 326 5 0 0 0 - - - 0;
#X obj 93 357 sel 128;
#X msg 93 409 0;
#X msg 199 400 1;
#X obj 199 375 loadbang;
#X obj 169 283 metro 1;
#X obj 93 386 t b b;
#X obj 174 27 inlet;
#X obj 174 78 array size;
#X obj 169 433 array get;
#X obj 93 564 outlet;
#X obj 284 283 r doll-val;
#X obj 169 510 array set;
#X obj 93 540 symbol;
#X obj 143 434 bng 19 250 50 0 empty empty empty 0 -10 0 12 #fcfcfc #000000 #000000;
#X obj 228 28 inlet buff;
#X msg 284 307 symbol \$1-array-resampled;
#X obj 301 340 print doll-arr;
#X obj 169 457 + 1;
#X obj 169 481 * 0.5;
#X obj 317 29 inlet switch;
#X obj 317 53 t b a;
#X connect 0 0 21 0;
#X connect 1 0 2 0;
#X connect 2 0 3 0;
#X connect 3 0 8 0;
#X connect 4 0 12 0;
#X connect 4 0 13 0;
#X connect 5 0 6 0;
#X connect 5 0 7 0;
#X connect 6 0 5 1;
#X connect 7 0 22 0;
#X connect 8 0 10 0;
#X connect 8 1 9 0;
#X connect 8 2 6 1;
#X connect 9 0 5 1;
#X connect 9 0 4 1;
#X connect 10 0 18 0;
#X connect 11 0 18 0;
#X connect 12 0 4 1;
#X connect 13 0 14 0;
#X connect 13 0 25 1;
#X connect 14 0 19 0;
#X connect 15 0 18 0;
#X connect 16 0 22 1;
#X connect 17 0 16 0;
#X connect 18 0 5 0;
#X connect 18 0 4 0;
#X connect 19 0 26 0;
#X connect 19 1 15 0;
#X connect 20 0 0 0;
#X connect 21 0 1 0;
#X connect 22 0 31 0;
#X connect 24 0 29 0;
#X connect 26 0 23 0;
#X connect 27 0 22 0;
#X connect 28 0 21 1;
#X connect 28 0 22 2;
#X connect 29 0 26 1;
#X connect 29 0 25 2;
#X connect 29 0 30 0;
#X connect 31 0 32 0;
#X connect 32 0 25 0;
#X connect 33 0 34 0;
#X connect 34 0 0 0;
#X connect 34 1 21 1;
#X restore 287 306 pd final-resample;
#X obj 287 279 bng 16 250 50 0 empty empty empty 0 -8 0 10 #fcfcfc #000000 #000000;
#N canvas 990 53 450 300 init 0;
#X obj 109 131 array define \$0-array-resampled 128;
#X restore 463 18 pd init;
#X obj 287 338 outlet;
#X obj 422 51 inlet rec-done;
#X obj 422 75 sel 0;
#X text 470 76 timer out;
#X obj 175 52 inlet buff;
#X text 98 166 causes clicks;
#X obj 52 165 +~ 1;
#X obj 52 190 *~ 0.5;
#X obj 39 301 tabread4~;
#X obj 331 51 inlet~ play;
#X obj 535 52 inlet switch;
#X connect 0 0 4 0;
#X connect 1 0 2 0;
#X connect 2 0 3 0;
#X connect 3 0 4 1;
#X connect 4 0 19 0;
#X connect 4 0 8 0;
#X connect 6 0 8 0;
#X connect 9 0 8 0;
#X connect 9 0 5 0;
#X connect 9 0 21 0;
#X connect 10 0 13 0;
#X connect 11 0 10 0;
#X connect 14 0 15 0;
#X connect 15 0 11 0;
#X connect 17 0 9 0;
#X connect 17 0 10 1;
#X connect 19 0 20 0;
#X connect 21 0 7 0;
#X connect 22 0 21 0;
#X connect 23 0 10 2;
