#N canvas 43 94 1370 630 12;
#X declare -path /Users/brittneyjuliet/Documents/Pd/patches/abstractions;
#X msg 168 170 0;
#X msg 206 169 1;
#X msg 245 169 2;
#X obj 101 90 vsl 19 162 0 5 0 0 empty empty empty 0 -9 0 12 #fcfcfc #000000 #000000 0 1;
#X obj 368 153 bng 19 250 50 0 empty empty play 20 10 0 12 #fcfcfc #000000 #000000;
#X obj 35 266 sampler, f 48;
#N canvas 154 492 559 300 init 0;
#X obj 51 221 f \$0;
#X obj 51 190 loadbang;
#X floatatom 51 245 5 0 0 0 - - - 0;
#X obj 23 190 bng 19 250 50 0 empty empty empty 0 -10 0 12 #fcfcfc #000000 #000000;
#X obj 51 268 s doll-val;
#X obj 118 190 r sampready;
#X obj 23 46 declare -path /Users/brittneyjuliet/Documents/Pd/patches/abstractions, f 72;
#X obj 23 99 array define \$0-buffer1 441000;
#X obj 23 125 array define \$0-buffer2 441000;
#X obj 23 73 array define \$0-buffer0 441000;
#X obj 23 150 array define \$0-array-resampled-dummy 128;
#X connect 0 0 2 0;
#X connect 1 0 0 0;
#X connect 2 0 4 0;
#X connect 3 0 0 0;
#X connect 5 0 0 0;
#X restore 1293 19 pd init;
#N canvas 477 168 450 300 clear-first 0;
#X msg 68 109 const 0;
#X obj 68 136 s \$0-buffer0;
#X msg 173 108 const 0;
#X msg 278 108 const 0;
#X obj 173 135 s \$0-buffer1;
#X obj 278 135 s \$0-buffer2;
#X obj 68 261 outlet;
#X obj 68 22 inlet;
#X obj 68 46 sel 0 1 2, f 45;
#X obj 68 70 t b b;
#X obj 68 166 symbol \$0-buffer0;
#X obj 172 71 t b b;
#X obj 276 71 t b b;
#X obj 172 194 symbol \$0-buffer1;
#X obj 276 222 symbol \$0-buffer2;
#X text 179 271 don't want to clear until recording;
#X connect 0 0 1 0;
#X connect 2 0 4 0;
#X connect 3 0 5 0;
#X connect 7 0 8 0;
#X connect 8 0 9 0;
#X connect 8 1 11 0;
#X connect 8 2 12 0;
#X connect 9 0 10 0;
#X connect 10 0 6 0;
#X connect 11 0 13 0;
#X connect 12 0 14 0;
#X connect 13 0 6 0;
#X connect 14 0 6 0;
#X restore 168 201 pd clear-first;
#N canvas 213 337 239 300 timer 0;
#X obj 132 138 metro 1000;
#X obj 132 162 f;
#X obj 163 162 + 1;
#X msg 37 127 1;
#X msg 132 235 0;
#X msg 72 127 0;
#X floatatom 132 186 5 0 0 0 - - - 0;
#X obj 37 53 tgl 19 0 empty empty empty 0 -10 0 12 #fcfcfc #000000 #000000 0 1;
#X obj 37 77 sel 1 0;
#X obj 37 101 t b b;
#X msg 110 100 0;
#X obj 37 20 inlet;
#X obj 36 269 outlet;
#X obj 132 211 sel 3;
#X connect 0 0 1 0;
#X connect 1 0 2 0;
#X connect 1 0 6 0;
#X connect 2 0 1 1;
#X connect 3 0 0 0;
#X connect 4 0 0 0;
#X connect 4 0 7 0;
#X connect 5 0 1 1;
#X connect 6 0 13 0;
#X connect 7 0 8 0;
#X connect 7 0 12 0;
#X connect 8 0 9 0;
#X connect 8 1 10 0;
#X connect 9 0 3 0;
#X connect 9 1 5 0;
#X connect 10 0 0 0;
#X connect 11 0 7 0;
#X connect 13 0 4 0;
#X restore 1293 44 pd timer;
#X text 304 290 1:record 0:done;
#X obj 168 132 sel 0 1 2;
#X obj 394 407 array get;
#X obj 234 399 outlet bool;
#X obj 369 408 bng 19 250 50 0 empty empty empty 0 -10 0 12 #fcfcfc #000000 #000000;
#X obj 101 58 inlet gain;
#X obj 168 82 inlet buff;
#X obj 368 122 inlet play;
#N canvas 88 78 729 688 samps 0;
#X obj 315 144 sel 1 0;
#X msg 348 206 0;
#X obj 315 266 bng 16 250 50 0 empty empty empty 0 -8 0 10 #fcfcfc #000000 #000000;
#X obj 315 287 f;
#X obj 348 287 + 1;
#X floatatom 315 308 16 0 0 0 - - - 0;
#X obj 315 166 t b 0;
#X obj 382 39 inlet buff;
#X floatatom 382 105 5 0 0 0 - - - 0;
#X obj 25 34 inlet state;
#X floatatom 25 58 5 0 0 0 - - - 0;
#X obj 315 337 f;
#X floatatom 315 402 17 0 0 0 - - - 0;
#X obj 315 438 pack 0 0 0;
#X msg 348 520 \; \$2-buffer\$3 resize \$1;
#X obj 440 133 r doll-val;
#X obj 26 497 outlet rec;
#X obj 25 91 sel 1 0;
#X obj 26 255 bng 19 250 50 0 empty empty empty 0 -10 0 12 #fcfcfc #000000 #000000;
#X msg 43 349 stop;
#X msg 58 288 \; \$2-buffer\$3 resize 441000;
#X obj 58 255 pack 0 0 0;
#X obj 315 245 metro 1 1 samp;
#N canvas 821 330 450 183 clear-first 0;
#X msg 68 109 const 0;
#X obj 68 136 s \$0-buffer0;
#X msg 172 108 const 0;
#X msg 276 108 const 0;
#X obj 172 135 s \$0-buffer1;
#X obj 276 135 s \$0-buffer2;
#X obj 68 22 inlet;
#X obj 68 46 sel 0 1 2, f 45;
#X connect 0 0 1 0;
#X connect 2 0 4 0;
#X connect 3 0 5 0;
#X connect 6 0 7 0;
#X connect 7 0 0 0;
#X connect 7 1 2 0;
#X connect 7 2 3 0;
#X restore 71 207 pd clear-first;
#X obj 74 115 t b b;
#X msg 382 568 symbol \$2-buffer\$3;
#X obj 315 600 array size;
#X floatatom 315 624 11 0 0 0 - - - 0;
#X obj 315 647 s \$0-size;
#X obj 508 372 array size;
#X floatatom 508 396 11 0 0 0 - - - 0;
#X obj 508 419 s \$0-size;
#X obj 575 307 pack 0 0;
#X msg 575 340 symbol \$2-buffer\$1;
#X obj 508 281 t b f;
#X obj 71 181 f;
#X obj 570 169 s \$0-stop;
#X obj 296 96 t f b;
#X obj 315 477 t b a;
#X obj 25 138 t b b b b;
#X floatatom 382 71 5 0 0 0 - - - 0;
#X obj 575 497 outlet buffer;
#X connect 0 0 6 0;
#X connect 0 1 1 0;
#X connect 1 0 22 0;
#X connect 2 0 3 0;
#X connect 3 0 4 0;
#X connect 3 0 5 0;
#X connect 4 0 3 1;
#X connect 5 0 11 1;
#X connect 6 0 22 0;
#X connect 6 1 3 1;
#X connect 7 0 37 0;
#X connect 7 0 40 0;
#X connect 8 0 13 2;
#X connect 8 0 21 2;
#X connect 8 0 34 0;
#X connect 8 0 35 1;
#X connect 9 0 10 0;
#X connect 10 0 0 0;
#X connect 10 0 17 0;
#X connect 11 0 12 0;
#X connect 12 0 13 0;
#X connect 13 0 38 0;
#X connect 15 0 13 1;
#X connect 15 0 21 1;
#X connect 15 0 32 1;
#X connect 17 0 39 0;
#X connect 17 1 19 0;
#X connect 17 1 24 0;
#X connect 18 0 16 0;
#X connect 19 0 16 0;
#X connect 21 0 20 0;
#X connect 22 0 2 0;
#X connect 24 1 11 0;
#X connect 25 0 26 1;
#X connect 26 0 27 0;
#X connect 27 0 28 0;
#X connect 29 0 30 0;
#X connect 30 0 31 0;
#X connect 32 0 33 0;
#X connect 33 0 29 1;
#X connect 33 0 41 0;
#X connect 34 0 29 0;
#X connect 34 1 32 0;
#X connect 35 0 23 0;
#X connect 37 0 35 1;
#X connect 37 0 21 2;
#X connect 37 0 34 0;
#X connect 37 0 13 2;
#X connect 37 1 36 0;
#X connect 38 0 26 0;
#X connect 38 1 14 0;
#X connect 38 1 25 0;
#X connect 39 0 18 0;
#X connect 39 1 21 0;
#X connect 39 2 35 0;
#X connect 39 3 36 0;
#X restore 234 232 pd samps;
#X obj 234 24 inlet state;
#X floatatom 234 48 5 0 0 0 - - - 0;
#X obj 394 334 t b s;
#X obj 647 82 expr 44100 / $f1;
#X obj 630 23 r \$0-size;
#X obj 612 162 phasor~;
#X obj 612 192 *~;
#X floatatom 646 53 9 0 0 0 - - - 0;
#X obj 708 329 snapshot~;
#X obj 708 268 tgl 19 0 empty empty empty 0 -10 0 12 #fcfcfc #000000 #000000 0 1;
#X floatatom 708 353 14 0 0 0 - - - 0;
#X obj 708 376 /;
#X floatatom 708 400 14 0 0 0 - - - 0;
#X obj 711 430 hsl 162 19 0 1 0 0 empty empty empty -2 -10 0 12 #fcfcfc #000000 #000000 0 1;
#X obj 708 217 loadbang;
#X obj 511 54 r \$0-stop;
#X obj 612 135 f;
#X msg 511 109 0;
#X floatatom 647 106 10 0 0 0 - - - 0;
#X floatatom 708 462 10 0 0 0 - - - 0;
#X obj 708 590 bng 19 250 50 0 empty empty empty 0 -10 0 12 #fcfcfc #000000 #000000;
#X obj 708 563 sel 1;
#X obj 511 78 t b b;
#X msg 674 138 0;
#X obj 1038 323 hsl 195 19 0 1 0 0 empty \$0-playhead empty -2 -10 0 12 #fcfcfc #000000 #000000 0 1;
#X obj 788 462 s \$0-playhead;
#X obj 1038 353 hsl 195 19 0 1 0 0 empty empty empty -2 -10 0 12 #fcfcfc #000000 #000000 0 1;
#X obj 1038 382 hsl 195 19 0 0.98 0 0 empty empty empty -2 -10 0 12 #fcfcfc #000000 #000000 0 1;
#X obj 835 201 f;
#X obj 368 182 t b b;
#X floatatom 168 106 5 0 0 0 - - - 0;
#N canvas 0 22 450 278 (subpatch) 0;
#X array \$0-array-resampled 128 float 3;
#A 0 0.499591 0.500731 0.500222 0.499683 0.499619 0.500475 0.499801 0.500267 0.500253 0.499614 0.499785 0.499834 0.500169 0.499805 0.5001 0.499864 0.500066 0.499972 0.499932 0.500208 0.500427 0.499635 0.500096 0.500001 0.500116 0.499704 0.499891 0.499868 0.500003 0.50019 0.499929 0.501367 0.498851 0.500027 0.499677 0.499979 0.501074 0.50991 0.564005 0.495992 0.503402 0.498479 0.490054 0.506238 0.497772 0.504203 0.497758 0.503094 0.498101 0.50062 0.49821 0.495998 0.495202 0.492996 0.49418 0.490827 0.506713 0.496403 0.501408 0.502992 0.502602 0.499463 0.493763 0.49612 0.499469 0.493349 0.491049 0.49926 0.502409 0.503504 0.500805 0.502392 0.497585 0.500385 0.497398 0.500885 0.496664 0.502971 0.496046 0.501577 0.50029 0.500872 0.503651 0.498195 0.497892 0.500706 0.501948 0.500523 0.498314 0.50076 0.501015 0.498362 0.49971 0.500091 0.500378 0.498731 0.501281 0.499132 0.500707 0.500224 0.50089 0.50008 0.500771 0.500519 0.500157 0.498009 0.498969 0.49945 0.499292 0.499806 0.50005 0.49964 0.499467 0.499943 0.500742 0.500341 0.499515 0.498982 0.499412 0.500161 0.501808 0.499592 0.500338 0.499308 0.501109 0.500041 0.500247 0.500247;
#X coords 0 1 128 -1 200 140 1;
#X restore 1034 152 graph;
#X obj 1033 82 inlet startpos;
#X obj 1155 82 inlet endpos;
#X obj 360 351 tgl 19 0 empty empty empty 0 -10 0 12 #fcfcfc #000000 #000000 0 1;
#X obj 360 375 metro 10;
#X obj 1105 481 outlet startpos;
#X obj 1232 481 outlet endpos;
#X text 380 273 resampled array name;
#X obj 369 438 outlet arrayname;
#X obj 978 481 outlet playhead;
#X obj 554 243 sel 1 0;
#X msg 554 267 0;
#X msg 577 295 1;
#X obj 35 401 outlet~;
#X floatatom 1035 413 5 0 0 0 - - - 0;
#X obj 708 299 metro 50;
#X floatatom 708 530 5 0 0 0 - - - 0;
#X obj 708 506 expr if($f1 >= $f2 - 0.02 \, 1 \, 0);
#X obj 36 27 bela/audio-in~ 0 1;
#X connect 0 0 7 0;
#X connect 0 0 17 1;
#X connect 1 0 7 0;
#X connect 1 0 17 1;
#X connect 2 0 7 0;
#X connect 2 0 17 1;
#X connect 3 0 5 1;
#X connect 4 0 47 0;
#X connect 5 0 62 0;
#X connect 5 1 20 0;
#X connect 5 1 57 0;
#X connect 7 0 5 2;
#X connect 10 0 0 0;
#X connect 10 1 1 0;
#X connect 10 2 2 0;
#X connect 13 0 11 0;
#X connect 14 0 3 0;
#X connect 15 0 48 0;
#X connect 16 0 4 0;
#X connect 17 0 5 3;
#X connect 17 1 5 6;
#X connect 18 0 19 0;
#X connect 19 0 17 0;
#X connect 19 0 5 5;
#X connect 19 0 12 0;
#X connect 19 0 59 0;
#X connect 20 0 11 0;
#X connect 20 1 11 2;
#X connect 21 0 36 0;
#X connect 22 0 21 0;
#X connect 22 0 24 1;
#X connect 22 0 25 0;
#X connect 22 0 29 1;
#X connect 23 0 24 0;
#X connect 24 0 5 4;
#X connect 24 0 26 0;
#X connect 26 0 28 0;
#X connect 27 0 64 0;
#X connect 28 0 29 0;
#X connect 29 0 30 0;
#X connect 30 0 31 0;
#X connect 31 0 37 0;
#X connect 31 0 43 0;
#X connect 32 0 27 0;
#X connect 33 0 40 0;
#X connect 34 0 23 0;
#X connect 35 0 23 0;
#X connect 36 0 34 1;
#X connect 37 0 66 0;
#X connect 38 0 40 0;
#X connect 39 0 38 0;
#X connect 40 0 46 0;
#X connect 40 1 35 0;
#X connect 41 0 23 1;
#X connect 42 0 58 0;
#X connect 44 0 46 1;
#X connect 44 0 54 0;
#X connect 45 0 55 0;
#X connect 45 0 63 0;
#X connect 46 0 23 1;
#X connect 47 0 34 0;
#X connect 47 1 46 0;
#X connect 48 0 10 0;
#X connect 50 0 44 0;
#X connect 51 0 45 0;
#X connect 52 0 53 0;
#X connect 53 0 11 0;
#X connect 59 0 60 0;
#X connect 59 1 61 0;
#X connect 60 0 27 0;
#X connect 61 0 27 0;
#X connect 63 0 66 1;
#X connect 64 0 26 0;
#X connect 65 0 39 0;
#X connect 66 0 65 0;
#X connect 67 0 5 0;
